#Comment line ignore any data following # character 
#Hierarchical Translation and Rotation (.htr) file 
[Header]	
#Header keywords are followed by a single value 
FileType HTR		#Single word string
DataType HTRS		#Translation followed by rotation and scale data
FileVersion 1		#integer
NumSegments 64		#integer
NumFrames 3		#integer
DataFrameRate 30		#integer, data frame rate in this file
EulerRotationOrder ZYX
CalibrationUnits mm
RotationUnits Degrees
GlobalAxisofGravity Y
BoneLengthAxis Y
ScaleFactor 1.00
[SegmentNames&Hierarchy]
#CHILD	PARENT
Pinger_Root GLOBAL
Pelvis Pinger_Root
L_Hip Pelvis
R_Hip Pelvis
Rear_Leg01 Pelvis
Spine1 Pelvis
L_Leg01 L_Hip
L_Leg02 L_Leg01
L_Leg03 L_Leg02
L_Foot L_Leg03
L_Toe1_01 L_Foot
L_Toe2_01 L_Foot
L_Toe3_01 L_Foot
planeAlignerLeft L_Foot
L_Toe1_02 L_Toe1_01
L_Toe1_03 L_Toe1_02
L_Toe2_02 L_Toe2_01
L_Toe2_03 L_Toe2_02
L_Toe3_02 L_Toe3_01
L_Toe3_03 L_Toe3_02
planeLockWeightLeft planeAlignerLeft
R_Leg01 R_Hip
R_Leg02 R_Leg01
R_Leg03 R_Leg02
R_Foot R_Leg03
planeAlignerRight R_Foot
R_Toe1_01 R_Foot
R_Toe2_01 R_Foot
R_Toe3_01 R_Foot
planeLockWeightRight planeAlignerRight
R_Toe1_02 R_Toe1_01
R_Toe1_03 R_Toe1_02
R_Toe2_02 R_Toe2_01
R_Toe2_03 R_Toe2_02
R_Toe3_02 R_Toe3_01
R_Toe3_03 R_Toe3_02
Rear_Leg02 Rear_Leg01
Rear_Leg03 Rear_Leg02
Rear_Leg04 Rear_Leg03
Rear_Foot Rear_Leg04
planeAlignerCenter Rear_Foot
Rear_Toe1_01 Rear_Foot
Rear_Toe2_01 Rear_Foot
Rear_Toe3_01 Rear_Foot
planeLockWeightCenter planeAlignerCenter
Rear_Toe1_02 Rear_Toe1_01
Rear_Toe1_03 Rear_Toe1_02
Rear_Toe2_02 Rear_Toe2_01
Rear_Toe2_03 Rear_Toe2_02
Rear_Toe3_02 Rear_Toe3_01
Rear_Toe3_03 Rear_Toe3_02
Back_Bone Spine1
Head Spine1
Motor_Bone Back_Bone
Ping_Mechanism Back_Bone
BN_LookIK Head
bottomMouth Head
L_Mouth01 Head
L_mouthFront Head
mouthGun Head
R_Mouth01 Head
R_mouthFront Head
TopMouth Head
weapon_bone Head
[BasePosition]
#SegmentName Tx, Ty, Tz, Rx, Ry, Rz, BoneLength
Pinger_Root 0.000000 0.000000 0.000000 -90.000000 0.000000 0.000000 10.000000 
Pelvis 0.000000 0.000000 0.000000 0.000000 0.000000 0.000000 10.000000 
L_Hip 0.000000 0.000000 0.000000 0.000000 0.000000 0.000000 10.000000 
R_Hip 0.000000 0.000000 0.000000 0.000000 0.000000 0.000000 10.000000 
Rear_Leg01 0.000000 0.000000 0.000000 0.000000 0.000000 0.000000 10.000000 
Spine1 0.000000 0.000000 0.000000 0.000000 0.000000 0.000000 10.000000 
L_Leg01 0.000000 0.000000 0.000000 0.000000 0.000000 0.000000 10.000000 
L_Leg02 0.000000 0.000000 0.000000 0.000000 0.000000 0.000000 10.000000 
L_Leg03 0.000000 0.000000 0.000000 0.000000 0.000000 0.000000 10.000000 
L_Foot 0.000000 0.000000 0.000000 0.000000 0.000000 0.000000 10.000000 
L_Toe1_01 0.000000 0.000000 0.000000 0.000000 0.000000 0.000000 10.000000 
L_Toe2_01 0.000000 0.000000 0.000000 0.000000 0.000000 0.000000 10.000000 
L_Toe3_01 0.000000 0.000000 0.000000 0.000000 0.000000 0.000000 10.000000 
planeAlignerLeft 0.000000 0.000000 0.000000 0.000000 0.000000 0.000000 10.000000 
L_Toe1_02 0.000000 0.000000 0.000000 0.000000 0.000000 0.000000 10.000000 
L_Toe1_03 0.000000 0.000000 0.000000 0.000000 0.000000 0.000000 10.000000 
L_Toe2_02 0.000000 0.000000 0.000000 0.000000 0.000000 0.000000 10.000000 
L_Toe2_03 0.000000 0.000000 0.000000 0.000000 0.000000 0.000000 10.000000 
L_Toe3_02 0.000000 0.000000 0.000000 0.000000 0.000000 0.000000 10.000000 
L_Toe3_03 0.000000 0.000000 0.000000 0.000000 0.000000 0.000000 10.000000 
planeLockWeightLeft 0.000000 0.000000 0.000000 0.000000 0.000000 0.000000 10.000000 
R_Leg01 0.000000 0.000000 0.000000 0.000000 0.000000 0.000000 10.000000 
R_Leg02 0.000000 0.000000 0.000000 0.000000 0.000000 0.000000 10.000000 
R_Leg03 0.000000 0.000000 0.000000 0.000000 0.000000 0.000000 10.000000 
R_Foot 0.000000 0.000000 0.000000 0.000000 0.000000 0.000000 10.000000 
planeAlignerRight 0.000000 0.000000 0.000000 0.000000 0.000000 0.000000 10.000000 
R_Toe1_01 0.000000 0.000000 0.000000 0.000000 0.000000 0.000000 10.000000 
R_Toe2_01 0.000000 0.000000 0.000000 0.000000 0.000000 0.000000 10.000000 
R_Toe3_01 0.000000 0.000000 0.000000 0.000000 0.000000 0.000000 10.000000 
planeLockWeightRight 0.000000 0.000000 0.000000 0.000000 0.000000 0.000000 10.000000 
R_Toe1_02 0.000000 0.000000 0.000000 0.000000 0.000000 0.000000 10.000000 
R_Toe1_03 0.000000 0.000000 0.000000 0.000000 0.000000 0.000000 10.000000 
R_Toe2_02 0.000000 0.000000 0.000000 0.000000 0.000000 0.000000 10.000000 
R_Toe2_03 0.000000 0.000000 0.000000 0.000000 0.000000 0.000000 10.000000 
R_Toe3_02 0.000000 0.000000 0.000000 0.000000 0.000000 0.000000 10.000000 
R_Toe3_03 0.000000 0.000000 0.000000 0.000000 0.000000 0.000000 10.000000 
Rear_Leg02 0.000000 0.000000 0.000000 0.000000 0.000000 0.000000 10.000000 
Rear_Leg03 0.000000 0.000000 0.000000 0.000000 0.000000 0.000000 10.000000 
Rear_Leg04 0.000000 0.000000 0.000000 0.000000 0.000000 0.000000 10.000000 
Rear_Foot 0.000000 0.000000 0.000000 0.000000 0.000000 0.000000 10.000000 
planeAlignerCenter 0.000000 0.000000 0.000000 0.000000 0.000000 0.000000 10.000000 
Rear_Toe1_01 0.000000 0.000000 0.000000 0.000000 0.000000 0.000000 10.000000 
Rear_Toe2_01 0.000000 0.000000 0.000000 0.000000 0.000000 0.000000 10.000000 
Rear_Toe3_01 0.000000 0.000000 0.000000 0.000000 0.000000 0.000000 10.000000 
planeLockWeightCenter 0.000000 0.000000 0.000000 0.000000 0.000000 0.000000 10.000000 
Rear_Toe1_02 0.000000 0.000000 0.000000 0.000000 0.000000 0.000000 10.000000 
Rear_Toe1_03 0.000000 0.000000 0.000000 0.000000 0.000000 0.000000 10.000000 
Rear_Toe2_02 0.000000 0.000000 0.000000 0.000000 0.000000 0.000000 10.000000 
Rear_Toe2_03 0.000000 0.000000 0.000000 0.000000 0.000000 0.000000 10.000000 
Rear_Toe3_02 0.000000 0.000000 0.000000 0.000000 0.000000 0.000000 10.000000 
Rear_Toe3_03 0.000000 0.000000 0.000000 0.000000 0.000000 0.000000 10.000000 
Back_Bone 0.000000 0.000000 0.000000 0.000000 0.000000 0.000000 10.000000 
Head 0.000000 0.000000 0.000000 0.000000 0.000000 0.000000 10.000000 
Motor_Bone 0.000000 0.000000 0.000000 0.000000 0.000000 0.000000 10.000000 
Ping_Mechanism 0.000000 0.000000 0.000000 0.000000 0.000000 0.000000 10.000000 
BN_LookIK 0.000000 0.000000 0.000000 0.000000 0.000000 0.000000 10.000000 
bottomMouth 0.000000 0.000000 0.000000 0.000000 0.000000 0.000000 10.000000 
L_Mouth01 0.000000 0.000000 0.000000 0.000000 0.000000 0.000000 10.000000 
L_mouthFront 0.000000 0.000000 0.000000 0.000000 0.000000 0.000000 10.000000 
mouthGun 0.000000 0.000000 0.000000 0.000000 0.000000 0.000000 10.000000 
R_Mouth01 0.000000 0.000000 0.000000 0.000000 0.000000 0.000000 10.000000 
R_mouthFront 0.000000 0.000000 0.000000 0.000000 0.000000 0.000000 10.000000 
TopMouth 0.000000 0.000000 0.000000 0.000000 0.000000 0.000000 10.000000 
weapon_bone 0.000000 0.000000 0.000000 0.000000 0.000000 0.000000 10.000000 
#Beginning of Data. Separated by tabs
#Fr	Tx	Ty	Tz	Rx	Ry	Rz	SF
[Pinger_Root]
25 3111.110596 0.000000 0.000000 -0.000075 -0.000000 -0.000020 3111.110596
26 3240.740234 0.000000 0.000000 -0.000075 -0.000000 -0.000020 3240.740234
27 3370.369629 0.000000 0.000000 -0.000075 -0.000000 -0.000020 3370.369629
[Pelvis]
25 261.180145 136.614563 4995.763184 39.168743 -71.899780 -67.028107 5004.450684
26 280.191132 79.537872 5013.275879 42.134415 -72.730408 -68.537483 5021.729980
27 289.234802 19.640020 5034.515137 45.318310 -73.535057 -70.268600 5042.854492
[L_Hip]
25 5.766392 125.831482 872.656799 -178.250168 -81.786369 87.376007 881.701050
26 5.766392 125.831482 872.656799 -178.250168 -81.786369 87.376007 881.701050
27 5.766392 125.831482 872.656799 -178.250168 -81.786369 87.376007 881.701050
[R_Hip]
25 5.765438 125.836372 -872.654907 -1.748770 81.786041 87.376961 881.699829
26 5.765438 125.836372 -872.654907 -1.748770 81.786041 87.376961 881.699829
27 5.765438 125.836372 -872.654907 -1.748770 81.786041 87.376961 881.699829
[Rear_Leg01]
25 -192.298416 -925.602966 -0.001907 -165.400238 -5.097295 -163.436447 945.367432
26 -192.298416 -925.602966 -0.001907 -164.181992 -8.199198 -166.607056 945.367432
27 -192.298416 -925.602966 -0.001907 -162.699829 -10.628210 -170.240814 945.367432
[Spine1]
25 290.604584 5.007505 0.000477 7.614580 -19.915241 41.456299 290.647736
26 290.604584 5.007505 0.000477 6.609303 -18.192818 41.816692 290.647736
27 290.604584 5.007505 0.000477 5.625030 -16.465248 42.142071 290.647736
[L_Leg01]
25 761.932007 -0.002384 -0.069261 85.168732 -6.461925 -79.649345 761.932068
26 761.932007 -0.002384 -0.069261 87.832611 -5.931994 -77.475807 761.932068
27 761.932007 -0.002384 -0.069261 91.248711 -6.008521 -75.664612 761.932068
[L_Leg02]
25 1441.140503 -0.000954 -0.000715 -1.333405 0.804769 -71.084740 1441.140503
26 1441.140503 -0.000954 -0.000715 -1.316416 0.822214 -68.576981 1441.140503
27 1441.140503 -0.000954 -0.000715 -1.298697 0.838884 -66.071602 1441.140503
[L_Leg03]
25 1686.963989 -0.000715 -0.000954 0.104753 -0.010001 81.773788 1686.963989
26 1686.963989 -0.000715 -0.000954 0.111857 -0.007837 80.070732 1686.963989
27 1686.963989 -0.000715 -0.000954 0.122800 -0.007862 77.688454 1686.963989
[L_Foot]
25 3041.570068 -30.715107 11.297464 -26.319244 6.527825 56.118019 3041.746094
26 3041.570068 -30.715107 11.297464 -28.033453 7.148864 55.808594 3041.746094
27 3041.570068 -30.715107 11.297464 -29.834064 8.768476 55.885063 3041.746094
[L_Toe1_01]
25 -188.216690 -224.732346 -21.137953 88.794029 -1.556119 -145.597549 293.899567
26 -188.216690 -224.732346 -21.137953 88.797546 -1.557048 -145.571960 293.899567
27 -188.216690 -224.732346 -21.137953 88.801079 -1.557979 -145.546371 293.899567
[L_Toe2_01]
25 200.746536 -219.926590 148.838394 -74.718552 -10.402433 -59.463245 332.896027
26 200.746536 -219.926590 148.838394 -74.736137 -10.371812 -59.439831 332.896027
27 200.746536 -219.926590 148.838394 -74.753700 -10.341183 -59.416416 332.896027
[L_Toe3_01]
25 188.832520 -219.859131 -191.078659 -109.729965 12.752057 -61.409214 347.140900
26 188.832520 -219.859131 -191.078659 -109.711021 12.713087 -61.379536 347.140900
27 188.832520 -219.859131 -191.078659 -109.692070 12.674098 -61.349854 347.140900
[planeAlignerLeft]
25 -79.513550 -809.790466 -0.005379 0.000000 -90.000000 -90.001900 813.684814
26 -78.749542 -810.536255 -0.006123 0.000000 -90.000000 -90.001900 814.352783
27 -77.985542 -811.282104 -0.006866 0.000000 -90.000000 -90.001900 815.021729
[L_Toe1_02]
25 413.761139 0.000477 0.000000 0.001386 -25.777327 0.001386 413.761139
26 413.761139 0.000477 0.000000 0.001386 -25.745440 0.001386 413.761139
27 413.761139 0.000477 0.000000 0.001386 -25.713547 0.001386 413.761139
[L_Toe1_03]
25 464.317322 0.000358 -0.000089 0.003152 46.280045 0.003152 464.317322
26 464.317322 0.000358 -0.000089 0.003124 45.860855 0.003124 464.317322
27 464.317322 0.000358 -0.000089 0.003163 46.441433 0.003163 464.317322
[L_Toe2_02]
25 342.235809 -0.000477 0.000238 0.001184 -74.598457 0.001184 342.235809
26 342.235809 -0.000477 0.000238 0.001184 -74.454460 0.001184 342.235809
27 342.235809 -0.000477 0.000238 0.001185 -74.310425 0.001185 342.235809
[L_Toe2_03]
25 420.210846 -0.000715 0.000000 -179.953018 88.648537 -179.949524 420.210846
26 420.210846 -0.000715 0.000000 -179.940140 88.931007 -179.936646 420.210846
27 420.210846 -0.000715 0.000000 -179.918060 89.213417 -179.914566 420.210846
[L_Toe3_02]
25 329.270111 0.000954 0.000000 0.001180 -78.414505 0.001180 329.270111
26 329.270111 0.000954 0.000000 0.001180 -78.259567 0.001180 329.270111
27 329.270111 0.000954 0.000000 0.001180 -78.104591 0.001180 329.270111
[L_Toe3_03]
25 439.137451 -0.001907 0.000954 -179.985046 86.056877 -179.981552 439.137451
26 439.137451 -0.001907 0.000954 -179.983917 86.308167 -179.980408 439.137451
27 439.137451 -0.001907 0.000954 -179.982605 86.559288 -179.979111 439.137451
[planeLockWeightLeft]
25 999.998962 0.098243 0.076196 -0.011826 -0.004376 0.005620 999.999023
26 999.998901 0.098255 0.076192 -0.011826 -0.004376 0.005620 999.998962
27 999.998901 0.098267 0.076189 -0.011826 -0.004376 0.005620 999.998962
[R_Leg01]
25 761.455627 -0.001907 -0.000358 94.597656 14.479971 37.884014 761.455688
26 761.455627 -0.001907 -0.000358 93.692940 6.581505 41.336498 761.455688
27 761.455627 -0.001907 -0.000358 99.920662 9.038437 42.703056 761.455688
[R_Leg02]
25 1441.140625 0.000000 -0.000238 -0.027448 0.018331 -106.756073 1441.140625
26 1441.140625 0.000000 -0.000238 0.186539 -0.026474 -94.527885 1441.140625
27 1441.140625 0.000000 -0.000238 0.189101 -0.013046 -91.996933 1441.140625
[R_Leg03]
25 1686.963989 0.000954 0.001431 0.015963 -0.003461 114.465027 1686.963989
26 1686.963989 0.000954 0.001431 -0.071020 0.010971 90.776093 1686.963989
27 1686.963989 0.000954 0.001431 -0.074530 0.014302 90.483849 1686.963989
[R_Foot]
25 3041.560059 -30.531288 -11.204481 33.232933 -32.886028 65.122307 3041.734131
26 3041.560059 -30.531288 -11.204481 41.580650 -27.978933 57.522694 3041.734131
27 3041.560059 -30.531288 -11.204481 38.280758 -23.940557 58.421047 3041.734131
[planeAlignerRight]
25 -25.736242 -817.642456 -20.430490 0.000000 -89.960434 -90.005180 818.302429
26 171.207123 -838.343994 -50.865364 0.000000 -89.960434 -90.005180 857.157959
27 110.074814 -769.251831 -29.904903 0.000000 -89.960434 -90.005180 777.662659
[R_Toe1_01]
25 -188.383347 -224.864899 21.052242 90.701103 3.129323 -146.892395 294.101532
26 -188.383347 -224.864899 21.052242 90.131760 4.967820 -148.500412 294.101532
27 -188.383347 -224.864899 21.052242 90.443268 3.710049 -156.177872 294.101532
[R_Toe2_01]
25 200.637817 -220.002121 -148.787384 -106.794395 8.414922 -70.764534 332.857574
26 200.637817 -220.002121 -148.787384 -105.127525 8.415318 -61.351929 332.857574
27 200.637817 -220.002121 -148.787384 -103.945847 10.136238 -54.327213 332.857574
[R_Toe3_01]
25 188.606735 -220.092957 191.126343 -69.212761 -6.809011 -71.478104 347.192566
26 188.606735 -220.092957 191.126343 -72.365654 -4.661071 -62.824593 347.192566
27 188.606735 -220.092957 191.126343 -73.008682 -9.154702 -56.164181 347.192566
[planeLockWeightRight]
25 895.998779 -0.000000 0.076218 -0.011823 -0.004379 -0.000027 895.998779
26 999.998901 -0.000610 0.075998 -0.011823 -0.004379 -0.000027 999.998962
27 999.999329 -0.000568 0.076008 -0.011823 -0.004379 -0.000027 999.999329
[R_Toe1_02]
25 413.762085 0.000477 -0.000119 0.001429 -20.473446 0.001429 413.762085
26 413.762085 0.000477 -0.000119 0.001447 -18.350996 0.001447 413.762085
27 413.762085 0.000477 -0.000119 0.001419 -21.564932 0.001419 413.762085
[R_Toe1_03]
25 464.317810 0.000000 0.001088 -0.058641 88.842255 -0.055144 464.317810
26 464.317810 0.000000 0.001088 -179.990875 83.937317 -179.987381 464.317810
27 464.317810 0.000000 0.001088 -0.014083 84.657822 -0.010582 464.317810
[R_Toe2_02]
25 342.234741 -0.000954 0.000238 -0.002334 -78.690956 -0.002334 342.234741
26 342.234741 -0.000954 0.000238 0.001208 -62.509846 0.001208 342.234741
27 342.234741 -0.000954 0.000238 0.001207 -62.996346 0.001207 342.234741
[R_Toe2_03]
25 420.210846 0.000715 -0.000268 -179.994614 71.702797 -179.998169 420.210846
26 420.210846 0.000715 -0.000268 -0.004434 64.883522 -0.000852 420.210846
27 420.210846 0.000715 -0.000268 -0.004523 65.740982 -0.000947 420.210846
[R_Toe3_02]
25 329.270355 -0.000477 -0.000954 0.001176 -82.662041 0.001176 329.270355
26 329.270355 -0.000477 -0.000954 0.001191 -70.652779 0.001191 329.270355
27 329.270355 -0.000477 -0.000954 0.001191 -70.349915 0.001191 329.270355
[R_Toe3_03]
25 439.137939 0.000238 0.001431 -179.998749 68.154129 -179.995178 439.137939
26 439.137939 0.000238 0.001431 0.008861 74.777946 0.008861 439.137939
27 439.137939 0.000238 0.001431 0.008509 74.144234 0.008509 439.137939
[Rear_Leg02]
25 1162.777710 -0.029802 0.005960 -9.471473 7.139789 -133.711853 1162.777710
26 1162.777710 -0.029802 0.005960 -9.169080 7.896975 -134.376526 1162.777710
27 1162.777710 -0.029802 0.005960 -8.503688 8.588980 -134.523300 1162.777710
[Rear_Leg03]
25 607.192505 -0.013351 -0.073195 0.010066 -0.005901 77.111694 607.192505
26 607.192505 -0.013351 -0.073195 0.010115 -0.005817 76.159821 607.192505
27 607.192505 -0.013351 -0.073195 0.010163 -0.005733 75.207939 607.192505
[Rear_Leg04]
25 995.874512 -0.020504 -0.011921 -0.043115 -0.017487 90.002289 995.874573
26 995.874512 -0.020504 -0.011921 -0.042690 -0.018501 87.294647 995.874573
27 995.874512 -0.020504 -0.011921 -0.045809 -0.016429 83.957306 995.874573
[Rear_Foot]
25 3096.176270 -0.067472 -0.041425 144.649429 69.283775 -57.774147 3096.176270
26 3096.176270 -0.067472 -0.041425 146.871552 67.569550 -53.378304 3096.176270
27 3096.176270 -0.067472 -0.041425 149.067612 66.153053 -49.120544 3096.176270
[planeAlignerCenter]
25 0.593567 26.898453 -828.032349 0.000009 0.000003 -179.999985 828.469360
26 0.586243 34.875687 -825.655396 0.000009 0.000003 -179.999985 826.391846
27 0.578766 41.507797 -817.460388 0.000009 0.000003 -179.999985 818.513733
[Rear_Toe1_01]
25 0.653352 83.966492 -371.173737 0.064907 29.009798 90.032082 380.553192
26 0.653352 83.966492 -371.173737 0.065550 28.915897 90.034737 380.553192
27 0.653352 83.966492 -371.173737 0.066188 28.821991 90.037369 380.553192
[Rear_Toe2_01]
25 178.200760 -294.826019 -362.060547 0.354540 54.235291 -71.179756 499.765686
26 178.200760 -294.826019 -362.060547 0.476441 54.111176 -70.966858 499.765686
27 178.200760 -294.826019 -362.060547 0.597181 53.986771 -70.755051 499.765686
[Rear_Toe3_01]
25 -153.359680 -308.780914 -362.060852 -0.538787 54.224304 -111.159836 499.952881
26 -153.359680 -308.780914 -362.060852 -0.678963 54.096573 -111.403160 499.952881
27 -153.359680 -308.780914 -362.060852 -0.817785 53.968472 -111.645172 499.952881
[planeLockWeightCenter]
25 999.999817 0.000235 0.076317 -0.011814 -0.004373 -0.000015 999.999817
26 999.999817 0.000231 0.076330 -0.011814 -0.004373 -0.000015 999.999817
27 999.999878 0.000227 0.076343 -0.011814 -0.004373 -0.000015 999.999878
[Rear_Toe1_02]
25 379.707825 0.194073 0.000477 -0.000767 -33.624729 0.000838 379.707855
26 379.707825 0.194073 0.000477 -0.000767 -33.624729 0.000838 379.707855
27 379.707825 0.194073 0.000477 -0.000767 -33.624729 0.000838 379.707855
[Rear_Toe1_03]
25 500.129700 0.165701 0.000119 0.007130 71.051331 0.007130 500.129761
26 500.129700 0.165701 0.000119 0.006682 69.768112 0.006682 500.129761
27 500.129700 0.165701 0.000119 -0.004942 69.070206 -0.001386 500.129761
[Rear_Toe2_02]
25 340.494507 0.000238 -0.000954 0.001182 -76.457504 0.001182 340.494507
26 340.494507 0.000238 -0.000954 0.001181 -77.374077 0.001181 340.494507
27 340.494507 0.000238 -0.000954 0.001180 -78.291016 0.001180 340.494507
[Rear_Toe2_03]
25 433.103577 0.000000 0.000238 0.014597 80.776520 0.014597 433.103546
26 433.103577 0.000000 0.000238 0.017664 82.380188 0.017664 433.103546
27 433.103577 0.000000 0.000238 0.022364 83.983795 0.022364 433.103546
[Rear_Toe3_02]
25 340.494141 -0.000358 -0.000477 0.001182 -76.375671 0.001182 340.494171
26 340.494141 -0.000358 -0.000477 0.001181 -77.290039 0.001181 340.494171
27 340.494141 -0.000358 -0.000477 0.001180 -78.204720 0.001180 340.494171
[Rear_Toe3_03]
25 433.103577 0.001431 -0.000238 0.014355 80.620781 0.014355 433.103546
26 433.103577 0.001431 -0.000238 0.003532 82.209274 0.005285 433.103546
27 433.103577 0.001431 -0.000238 -0.012375 83.797607 -0.008873 433.103546
[Back_Bone]
25 1312.175781 -701.934692 0.000954 2.107728 -3.291730 -83.853790 1488.125488
26 1312.175781 -701.934692 0.000954 2.333966 -2.968246 -83.663704 1488.125488
27 1312.175781 -701.934692 0.000954 2.504240 -2.429769 -83.952141 1488.125488
[Head]
25 1406.159424 809.709290 0.001431 9.410741 -7.846833 2.933885 1622.625488
26 1406.159424 809.709290 0.001431 9.845848 -7.907673 2.600078 1622.625488
27 1406.159424 809.709290 0.001431 10.281343 -7.965996 2.265787 1622.625488
[Motor_Bone]
25 1158.364380 -417.834747 0.000477 -1.034489 -1.094876 -107.077385 1231.419434
26 1158.364380 -417.834747 0.000477 -2.188160 -1.022762 -107.007042 1231.419434
27 1158.364380 -417.834747 0.000477 -2.074372 -0.843160 -106.828514 1231.419434
[Ping_Mechanism]
25 1164.199219 -377.076416 49.491280 0.000103 -0.000053 82.120995 1224.743286
26 1165.329956 -379.370483 45.488541 0.000103 -0.000053 82.120995 1226.370605
27 1166.460693 -381.664551 41.485802 0.000103 -0.000053 82.120995 1228.014404
[BN_LookIK]
25 193.241119 1380.371704 -0.002861 0.000000 89.965736 -31.038179 1393.832153
26 193.241119 1380.371704 -0.002861 0.000000 89.965736 -31.038179 1393.832153
27 193.241119 1380.371704 -0.002861 0.000000 89.965736 -31.038179 1393.832153
[bottomMouth]
25 -435.092926 615.759399 -0.000954 -0.000022 0.000016 73.527184 753.966492
26 -435.092926 615.759399 -0.000954 -0.000022 0.000016 73.527184 753.966492
27 -435.092926 615.759399 -0.000954 -0.000022 0.000016 73.527184 753.966492
[L_Mouth01]
25 554.440979 7.658243 838.222046 150.204178 23.759130 109.605339 1005.027161
26 554.440979 7.658243 838.222046 150.204178 23.759130 109.605339 1005.027161
27 554.440979 7.658243 838.222046 150.204178 23.759130 109.605339 1005.027161
[L_mouthFront]
25 551.629089 934.514771 339.150421 0.000081 2.804060 79.119301 1136.941284
26 551.629089 934.514771 339.150421 0.000081 2.804060 79.119301 1136.941284
27 551.629089 934.514771 339.150421 0.000081 2.804060 79.119301 1136.941284
[mouthGun]
25 55.332661 1627.420898 0.000000 0.000023 0.000009 -11.038128 1628.361328
26 55.332661 1627.420898 0.000000 0.000023 0.000009 -11.038128 1628.361328
27 55.332661 1627.420898 0.000000 0.000023 0.000009 -11.038128 1628.361328
[R_Mouth01]
25 554.442383 7.659197 -838.223938 29.795891 -23.759109 109.605331 1005.029541
26 554.442383 7.659197 -838.223938 29.795891 -23.759109 109.605331 1005.029541
27 554.442383 7.659197 -838.223938 29.795891 -23.759109 109.605331 1005.029541
[R_mouthFront]
25 551.629089 934.514282 -339.151367 0.000029 -2.803930 79.119133 1136.941162
26 551.629089 934.514282 -339.151367 0.000029 -2.803930 79.119133 1136.941162
27 551.629089 934.514282 -339.151367 0.000029 -2.803930 79.119133 1136.941162
[TopMouth]
25 461.269867 -56.106091 -0.008583 -0.000059 -0.000268 92.025169 464.669525
26 461.269867 -56.106091 -0.008583 -0.000059 -0.000268 92.025169 464.669525
27 461.269867 -56.106091 -0.008583 -0.000059 -0.000268 92.025169 464.669525
[weapon_bone]
25 -987.239868 1448.372803 0.001431 0.000000 89.965736 -31.038221 1752.833740
26 -987.239868 1448.372803 0.001431 0.000000 89.965736 -31.038221 1752.833740
27 -987.239868 1448.372803 0.001431 0.000000 89.965736 -31.038221 1752.833740
